<?xml version="1.0" encoding="UTF-8" standalone="no"?>
<!-- Created with Inkscape (http://www.inkscape.org/) -->
<svg
   xmlns:dc="http://purl.org/dc/elements/1.1/"
   xmlns:cc="http://web.resource.org/cc/"
   xmlns:rdf="http://www.w3.org/1999/02/22-rdf-syntax-ns#"
   xmlns:svg="http://www.w3.org/2000/svg"
   xmlns="http://www.w3.org/2000/svg"
   xmlns:sodipodi="http://sodipodi.sourceforge.net/DTD/sodipodi-0.dtd"
   xmlns:inkscape="http://www.inkscape.org/namespaces/inkscape"
   width="210mm"
   height="297mm"
   id="svg2"
   sodipodi:version="0.32"
   inkscape:version="0.45.1"
   sodipodi:docbase="/home/fmeschbe/projects/sling"
   sodipodi:docname="logo2.svg"
   inkscape:output_extension="org.inkscape.output.svg.inkscape">
  <defs
     id="defs4" />
  <sodipodi:namedview
     id="base"
     pagecolor="#ffffff"
     bordercolor="#666666"
     borderopacity="1.0"
     inkscape:pageopacity="0.0"
     inkscape:pageshadow="2"
     inkscape:zoom="2.2064918"
     inkscape:cx="260.01562"
     inkscape:cy="812.04179"
     inkscape:document-units="px"
     inkscape:current-layer="layer1"
     showguides="true"
     inkscape:guide-bbox="true"
     showgrid="true"
     inkscape:window-width="1549"
     inkscape:window-height="1115"
     inkscape:window-x="14"
     inkscape:window-y="25" />
  <metadata
     id="metadata7">
    <rdf:RDF>
      <cc:Work
         rdf:about="">
        <dc:format>image/svg+xml</dc:format>
        <dc:type
           rdf:resource="http://purl.org/dc/dcmitype/StillImage" />
      </cc:Work>
    </rdf:RDF>
  </metadata>
  <g
     inkscape:label="Ebene 1"
     inkscape:groupmode="layer"
     id="layer1">
    <g
       id="g3610">
      <path
         inkscape:export-ydpi="90"
         inkscape:export-xdpi="90"
         inkscape:export-filename="/home/fmeschbe/projects/sling/logo2.png"
         sodipodi:nodetypes="csssssssssccsssssssszssssccssssccssccsssssssssccsssccccssscsssssssssscsscscccccsccccsssssssccccccccsssccccscccccccccsssssssc"
         id="path3546"
         d="M 103.23227,184.17883 C 97.758723,184.17883 93.341973,186.35833 89.833248,190.42883 C 86.352243,194.4997 84.513054,199.47577 84.513054,205.6632 C 84.51306,208.97614 85.021567,212.1152 85.892363,214.84289 C 86.791533,217.57151 88.008713,219.87595 89.636203,221.87414 C 91.287968,223.83163 94.560908,226.39238 99.291378,229.49132 C 104.05775,232.5587 107.21662,235.39057 108.74951,237.88976 C 110.27747,240.38113 110.91697,242.95251 110.91699,245.70226 C 110.91699,248.63451 110.18796,250.86364 108.55246,252.34289 C 106.91698,253.8222 104.50032,254.49132 101.26182,254.49132 C 97.073093,254.49132 92.764693,252.51507 88.453938,248.63195 L 84.513054,261.32726 C 89.136618,265.15601 94.343013,266.99132 100.07956,266.99132 C 106.71142,266.99126 111.91379,264.92032 115.8431,260.74132 C 119.80162,256.56088 121.75441,251.20401 121.75443,244.7257 C 121.75441,241.12088 121.33015,237.86989 120.37512,234.96007 C 119.4197,232.0132 118.06145,229.5232 116.23719,227.34289 C 114.4146,225.12832 111.3106,222.54501 107.17315,219.92101 C 99.303158,214.95408 95.350478,210.30227 95.350493,205.6632 C 95.350488,202.8777 96.124778,200.55751 97.517978,198.82726 C 98.940678,197.05895 100.01868,196.09289 103.42931,196.09289 C 106.83994,196.09289 122.54076,196.09289 125.30123,196.09289 C 128.0617,196.09295 209.32539,195.89758 249.43916,195.89758 C 249.4401,195.89752 253.69471,195.84827 257.12388,197.8507 C 261.31194,200.2962 261.80144,202.03652 263.03521,206.44445 C 263.24374,207.18945 263.03521,205.86033 263.03521,214.84289 L 270.32585,221.2882 C 270.32586,221.2882 270.32585,210.68133 270.32585,199.02258 C 270.32586,194.85026 268.16854,190.48658 264.21748,187.69445 C 259.71114,184.51001 255.25416,184.37414 249.43916,184.37414 C 243.48707,184.37408 141.6219,184.37414 125.49827,184.37414 C 109.37462,184.37408 110.35335,184.17883 103.23227,184.17883 z M 89.833248,184.37414 C 84.840318,184.76189 78.711741,185.97295 76.237192,188.4757 C 73.064091,191.68495 70.325862,193.61627 70.325862,199.60851 C 70.32585,219.30488 70.325862,253.27926 70.325862,268.94445 C 70.472091,274.7652 73.247768,277.07782 76.237192,280.07726 C 79.519081,282.48507 85.389488,284.17882 90.621428,284.17882 C 111.93766,284.17876 206.87604,283.98351 249.24211,283.98351 C 255.05607,283.98357 260.09687,282.73195 264.21748,280.07726 C 268.33796,277.45107 270.3258,273.76401 270.32585,269.13976 C 270.32582,260.77607 265.25778,256.63976 254.9564,256.63976 C 253.4888,256.63989 251.6965,256.79751 249.6362,257.2257 C 247.57593,257.65389 246.1761,257.81164 245.30122,257.81164 C 243.3538,257.81164 242.34555,257.39101 242.34556,256.24914 C 242.34555,255.59276 243.01774,254.89545 244.316,254.29601 C 245.64243,253.66801 246.28592,253.31945 246.48349,253.31945 L 248.25689,253.71007 C 249.52692,253.85289 250.64756,253.90539 251.4096,253.90539 C 256.20749,253.90532 260.09944,252.32926 263.23226,249.21789 C 266.39312,246.07801 267.96127,241.94164 267.96132,236.71789 C 267.96127,233.06413 267.14955,229.83082 265.39975,227.14757 L 270.32585,223.43664 L 263.03521,216.6007 L 258.89728,221.48351 C 256.15963,219.9422 252.71507,219.13976 248.65098,219.13976 C 243.45791,219.13982 239.20208,220.79707 235.64605,224.02257 C 232.08992,227.2197 230.32586,231.41757 230.32586,236.32726 C 230.32586,242.5502 232.84578,247.18826 238.01058,250.58507 C 236.40185,251.27013 234.8892,252.44957 233.67561,253.90539 C 232.46198,255.36126 231.9022,256.88463 231.90221,258.39757 C 231.90222,263.67845 235.65508,266.21007 242.93669,266.21007 C 244.12206,266.21001 245.7173,266.10495 248.05985,265.81945 C 250.40235,265.53407 252.19464,265.42882 253.38004,265.42882 C 257.75458,265.42876 260.07952,266.81864 260.07955,269.53039 C 260.07953,271.12889 259.09948,272.32782 257.12388,273.24132 C 255.1483,274.15482 252.4872,274.60851 249.43916,274.60851 C 244.89825,274.60851 95.838168,274.41338 90.621428,274.4132 C 90.621418,274.41326 85.658108,274.60157 82.936699,273.24132 C 80.215281,271.88107 79.78399,268.94445 79.78399,268.94445 C 79.784003,268.94445 79.78399,209.42933 79.78399,199.60851 C 79.784003,199.6562 80.179851,198.73339 80.871959,197.54514 C 81.4143,196.61408 81.749414,196.09289 84.31601,196.09289 C 85.922523,193.09558 85.709273,192.74045 87.788108,190.29814 C 89.910023,187.8052 92.683873,185.71201 94.849943,184.37414 C 93.631933,184.37414 91.497558,184.24489 89.833248,184.37414 z M 143.42931,200.58508 L 132.78891,203.12414 L 132.78891,256.83507 C 132.78892,263.57176 135.28165,266.79595 140.07955,266.79601 C 144.03081,266.79595 146.91554,265.24845 148.55246,262.10851 C 145.22216,261.0237 143.42931,257.79951 143.42931,252.14757 L 143.42931,200.58508 z M 164.90714,202.34289 C 163.21378,202.34302 161.78579,203.06864 160.57216,204.29601 C 159.38678,205.49495 158.79875,206.88014 158.79877,208.59289 C 158.79875,210.30564 159.3868,211.8577 160.57216,213.08508 C 161.78578,214.28408 163.21378,214.84295 164.90714,214.84289 C 166.60049,214.84289 168.05672,214.28408 169.24211,213.08508 C 170.45571,211.8577 171.0155,210.30558 171.01551,208.59289 C 171.01548,206.8802 170.45571,205.49495 169.24211,204.29601 C 168.05672,203.06864 166.60049,202.34295 164.90714,202.34289 z M 204.90714,219.33507 C 199.29069,219.33507 194.97807,220.98789 192.09926,224.4132 L 190.12881,220.11632 L 182.44408,220.11632 L 182.44408,266.01476 L 193.08448,266.01476 L 193.08448,232.81164 C 194.07225,231.4987 195.47256,230.57157 197.22241,229.68664 C 199.00047,228.8017 200.59621,228.31951 202.14852,228.31945 C 205.50698,228.31939 207.97155,229.25551 209.43916,231.05382 C 210.93497,232.8522 211.80366,235.73695 211.80369,239.64757 L 211.80369,266.01476 L 222.24704,266.01476 L 222.24704,237.88976 C 222.24697,232.03813 220.65069,227.47207 217.51797,224.21789 C 214.41337,220.9352 210.29777,219.33513 204.90714,219.33507 z M 153.67561,220.11632 L 153.67561,228.90539 L 159.3899,228.90539 L 159.3899,266.01476 L 170.22734,266.01476 L 170.22734,220.11632 L 153.67561,220.11632 z M 249.24211,227.92882 C 251.55641,227.92882 253.51699,228.86938 254.9564,230.46789 C 256.42398,232.06645 257.12387,234.01514 257.12388,236.32726 C 257.12387,239.1247 256.50813,241.17407 255.15344,242.77257 C 253.79864,244.37113 251.754,245.31164 249.24211,245.31164 C 246.73023,245.3117 244.82656,244.3997 243.33078,242.77257 C 241.86318,241.11701 240.96623,239.03907 240.96625,236.32726 C 240.96621,233.90095 241.80672,231.81413 243.33078,230.27257 C 244.85478,228.7312 246.81492,227.92888 249.24211,227.92882 z "
         style="font-size:72px;font-style:normal;font-variant:normal;font-weight:bold;font-stretch:normal;text-align:start;line-height:125%;writing-mode:lr-tb;text-anchor:start;fill:#bccae4;fill-opacity:1;stroke:none;stroke-width:1;stroke-linecap:round;stroke-miterlimit:4;stroke-dasharray:none;stroke-opacity:1;font-family:Trebuchet MS" />
      <rect
         y="134.17883"
         x="70.325859"
         height="200"
         width="200"
         id="rect3602"
         style="fill:none;fill-opacity:1;stroke:none;stroke-width:1.11994696;stroke-linecap:butt;stroke-linejoin:miter;stroke-miterlimit:4;stroke-dasharray:none;stroke-opacity:1" />
    </g>
  </g>
</svg>
